<?xml version="1.0" encoding="UTF-8"?>
<!-- Uploaded to: SVG Find, www.svgrepo.com, Generator: SVG Find Mixer Tools -->
<svg width="800px" height="800px" version="1.1" viewBox="144 144 512 512" xmlns="http://www.w3.org/2000/svg">
 <defs>
  <clipPath id="a">
   <path d="m243 148.09h314v503.81h-314z"/>
  </clipPath>
 </defs>
 <g clip-path="url(#a)">
  <path d="m556.18 205.44-0.64844 147.86 0.042969-0.023437-0.089844 8.4531v0.42578l-0.11328 25.379c0.26953 68 0.80859 136.04 0.80859 204.04-0.13281 21.141-20.516 36.52-51.027 46.387-28.742 9.2812-66.855 13.922-104.83 13.922-1.8398 0 0.55859-0.023437-2.8242-0.023437-40.242-0.24609-80.305-5.6953-108.96-16.367-26.656-9.9102-43.965-24.551-43.965-44.121h0.023437l-0.80859-203.84c-0.023438-5.875 0.17969-15.625 0.22266-18.25l0.58203-164.02c-0.023437-0.29297-0.023437-0.58203-0.023437-0.875 0-16.703 18.293-31.207 47.887-41.184 27.734-9.3477 65.891-15.109 107.93-15.109 42.016 0 80.195 5.7852 107.93 15.109 29.594 9.9531 47.887 24.48 47.887 41.184 0 0.35938 0 0.69531-0.023438 1.0312zm-12.309 182.11v-0.042969c-0.023438-3.7422 0.023438-11.457 0.066406-17.465-55.422 20.762-98.691 32.238-142.61 33.676-44.078 1.4336-88.445-7.3086-145.95-26.969-0.066406 3.6562-0.11328 7.8242-0.089843 10.785l0.80859 203.86 0.023438 0.023437c0 13.945 14.348 25.133 36.43 33.359 27.398 10.18 66.023 15.402 104.99 15.625 1.5234 0-0.94141-0.023438 2.7812-0.023438 36.945 0 73.781-4.4375 101.31-13.34 25.762-8.3164 42.957-20.223 43.047-35.488v-0.13281l-0.80859-203.86zm0.13281-29.863 0.58203-131.24c-8.2969 7.3984-20.738 13.898-36.273 19.145-27.734 9.3477-65.891 15.109-107.93 15.109s-80.195-5.7852-107.93-15.109c-15.672-5.2695-28.16-11.816-36.453-19.305l-0.49219 138.33c57.91 20.066 101.98 28.988 145.43 27.598 43.473-1.4141 86.742-13.184 143.06-34.527zm-39.348-183.57c-26.566-8.9453-63.426-14.484-104.27-14.484-40.848 0-77.707 5.5391-104.27 14.484-24.707 8.3164-39.996 19.078-39.996 30.266 0 11.211 15.289 21.949 39.996 30.266 26.566 8.9453 63.426 14.484 104.27 14.484 40.848 0 77.707-5.5391 104.27-14.484 24.707-8.3164 39.996-19.078 39.996-30.266 0-11.211-15.289-21.949-39.996-30.266z"/>
 </g>
</svg>