<?xml version="1.0" encoding="UTF-8"?>
<!-- Uploaded to: SVG Find, www.svgrepo.com, Generator: SVG Find Mixer Tools -->
<svg fill="#000000" width="800px" height="800px" version="1.1" viewBox="144 144 512 512" xmlns="http://www.w3.org/2000/svg">
 <g fill-rule="evenodd">
  <path d="m181.05 412.34c-6.1484-6.1484-6.1484-16.117 0-22.266l56.238-56.234c88.125-88.129 231.01-88.129 319.14 0l56.234 56.234c6.1484 6.1484 6.1484 16.117 0 22.266l-56.234 56.238c-88.129 88.125-231.01 88.125-319.14 0zm33.398-11.133 45.105 45.105c75.828 75.832 198.77 75.832 274.61 0l45.105-45.105-45.105-45.102c-75.832-75.832-198.78-75.832-274.61 0z"/>
  <path d="m396.86 350.64c-25.559 0-46.281 20.723-46.281 46.281 0 25.559 20.723 46.281 46.281 46.281 25.562 0 46.281-20.723 46.281-46.281 0-25.559-20.719-46.281-46.281-46.281zm-77.77 46.281c0-42.949 34.82-77.77 77.77-77.77 42.953 0 77.77 34.82 77.77 77.77 0 42.953-34.816 77.77-77.77 77.77-42.949 0-77.77-34.816-77.77-77.77z"/>
 </g>
</svg>